<?xml version="1.0" encoding="UTF-8"?>
<svg id="Réteg_1" data-name="Réteg 1" xmlns="http://www.w3.org/2000/svg" xmlns:xlink="http://www.w3.org/1999/xlink" viewBox="0 0 631.44 140.27">
  <defs>
    <style>
      .cls-1 {
        fill: #3572ef;
      }

      .cls-2 {
        fill: url(#Névtelen_színátmenet_35);
      }
    </style>
    <linearGradient id="Névtelen_színátmenet_35" data-name="Névtelen színátmenet 35" x1="2.58" y1="126.81" x2="137.68" y2="13.45" gradientUnits="userSpaceOnUse">
      <stop offset="0" stop-color="#050c9c"/>
      <stop offset=".54" stop-color="#3572ef"/>
      <stop offset="1" stop-color="#3abef9"/>
    </linearGradient>
  </defs>
  <g>
    <path class="cls-1" d="M232.77,102.56c0-5.31-1.87-9.38-5.62-12.23-3.75-2.84-10.49-5.84-20.24-8.99-9.74-3.15-17.46-6.26-23.14-9.32-15.49-8.37-23.24-19.64-23.24-33.82,0-7.37,2.08-13.94,6.23-19.72,4.15-5.78,10.12-10.29,17.9-13.54C192.44,1.68,201.17.06,210.85.06s18.43,1.77,26.05,5.29c7.62,3.53,13.54,8.51,17.75,14.94,4.22,6.43,6.32,13.74,6.32,21.92h-28.11c0-6.25-1.97-11.1-5.9-14.57-3.94-3.47-9.46-5.2-16.58-5.2s-12.21,1.45-16.02,4.36c-3.81,2.9-5.72,6.73-5.72,11.48,0,4.44,2.23,8.15,6.7,11.15s11.04,5.81,19.72,8.43c15.99,4.81,27.64,10.77,34.95,17.9s10.96,15.99,10.96,26.61c0,11.81-4.47,21.07-13.4,27.78-8.93,6.71-20.96,10.07-36.07,10.07-10.49,0-20.05-1.92-28.67-5.76-8.62-3.84-15.19-9.1-19.72-15.79-4.53-6.68-6.79-14.43-6.79-23.24h28.2c0,15.05,8.99,22.58,26.98,22.58,6.68,0,11.9-1.36,15.65-4.08s5.62-6.51,5.62-11.38Z"/>
    <path class="cls-1" d="M321.13,122.05c5.68,0,10.4-1.65,14.15-4.97,3.75-3.31,5.75-7.4,6-12.27h21.46c-.25,6.31-2.22,12.2-5.9,17.66-3.69,5.47-8.68,9.79-14.99,12.98-6.31,3.19-13.12,4.78-20.43,4.78-14.18,0-25.42-4.59-33.73-13.77-8.31-9.18-12.46-21.86-12.46-38.04v-2.34c0-15.43,4.12-27.78,12.37-37.06,8.25-9.28,19.49-13.91,33.73-13.91,12.05,0,21.88,3.51,29.47,10.54,7.59,7.03,11.57,16.26,11.95,27.69h-21.46c-.25-5.81-2.23-10.59-5.95-14.34-3.72-3.75-8.45-5.62-14.19-5.62-7.37,0-13.06,2.67-17.05,8.01-4,5.34-6.03,13.45-6.09,24.31v3.65c0,10.99,1.98,19.19,5.95,24.59,3.97,5.4,9.7,8.1,17.19,8.1Z"/>
    <path class="cls-1" d="M376.78,86.72c0-9.93,1.95-18.86,5.86-26.8,3.9-7.93,9.34-14.05,16.3-18.36s14.91-6.46,23.85-6.46c13.8,0,24.97,4.78,33.5,14.33,8.53,9.56,12.79,22.27,12.79,38.13v1.22c0,9.87-1.89,18.72-5.67,26.56-3.78,7.84-9.18,13.95-16.21,18.32-7.03,4.37-15.1,6.56-24.22,6.56-13.74,0-24.88-4.78-33.4-14.33-8.53-9.56-12.79-22.21-12.79-37.95v-1.22ZM394.21,88.78c0,11.24,2.61,20.27,7.82,27.08,5.21,6.81,12.2,10.21,20.94,10.21s15.8-3.45,20.99-10.35c5.18-6.9,7.78-16.57,7.78-29,0-11.12-2.64-20.13-7.92-27.03-5.28-6.9-12.29-10.35-21.03-10.35s-15.46,3.41-20.71,10.21c-5.25,6.81-7.87,16.55-7.87,29.23Z"/>
    <path class="cls-1" d="M539.16,46.53c-2.38-.44-4.9-.66-7.59-.66-7,0-12.92,1.95-17.75,5.86-4.84,3.9-8.29,9.57-10.35,17v69.62h-11.15V36.97h10.96l.19,16.12c5.93-11.99,15.46-17.99,28.58-17.99,3.12,0,5.59.41,7.4,1.22l-.28,10.21Z"/>
    <path class="cls-1" d="M594.81,140.22c-8.18,0-15.69-2.2-22.53-6.61s-12.2-10.45-16.07-18.13-5.81-16.21-5.81-25.58v-4.22c0-9.37,1.87-17.96,5.62-25.77,3.75-7.81,8.9-13.9,15.46-18.27,6.56-4.37,13.71-6.56,21.46-6.56,11.3,0,20.55,4.03,27.73,12.09,7.18,8.06,10.78,18.64,10.78,31.76v5.34h-75.99v5.52c0,8.23,1.73,15.85,5.2,22.87s8.25,12.52,14.33,16.51c6.09,3.99,12.7,5.98,19.82,5.98s12.6-1.13,17.38-3.4,9.01-5.75,12.7-10.47l3.56,2.53c-7.56,10.93-18.77,16.4-33.64,16.4ZM592.94,40.16c-9.87,0-18.24,3.67-25.11,11.01-6.87,7.34-10.9,16.69-12.09,28.06h70.65v-1.22c0-6.87-1.45-13.26-4.36-19.16-2.9-5.9-6.9-10.49-11.99-13.77-5.09-3.28-10.79-4.92-17.1-4.92Z"/>
  </g>
  <path class="cls-2" d="M0,86.77V25.99c0-14.36,11.64-25.99,25.99-25.99h27.94L0,86.77ZM28.4,87.7h26.41v-45.16l-2.12,3.43-24.29,41.73ZM114.27,0h-25.5v87.7h14.92v26.21h-14.92v26.36h25.5c14.36,0,25.99-11.64,25.99-25.99V25.99c0-14.36-11.64-25.99-25.99-25.99ZM54.8,113.91H0v.37C0,128.63,11.64,140.27,25.99,140.27h28.81v-26.36Z"/>
</svg>